PathFileType	4	(X/Y/Z)	pose_F01_0-82.trc
DataRate	CameraRate	NumFrames	NumMarkers	Units	OrigDataRate	OrigDataStartFrame	OrigNumFrames
30	30	6	21	m	30	51	82
Frame#	Time	CHip			RHip			RKnee			RAnkle			RBigToe			RSmallToe			RHeel			LHip			LKnee			LAnkle			LBigToe			LSmallToe			LHeel			Neck			Nose			RShoulder			RElbow			RWrist			LShoulder			LElbow			LWrist			
		X1	Y1	Z1	X2	Y2	Z2	X3	Y3	Z3	X4	Y4	Z4	X5	Y5	Z5	X6	Y6	Z6	X7	Y7	Z7	X8	Y8	Z8	X9	Y9	Z9	X10	Y10	Z10	X11	Y11	Z11	X12	Y12	Z12	X13	Y13	Z13	X14	Y14	Z14	X15	Y15	Z15	X16	Y16	Z16	X17	Y17	Z17	X18	Y18	Z18	X19	Y19	Z19	X20	Y20	Z20	X21	Y21	Z21	
51	1.7	-0.2635145505500193	1.8209394961491978	-0.4634282707449499	-0.27139827311647946	1.817977632943178	-0.3956220785370215	-0.2781312296176281	1.6916183313765438	-0.3567622858852094	-0.552117753211613	1.5584606282954563	-0.8725329228131172	-0.5508320435272418	1.504296955259991	-0.9289330254556961	-0.5656040233215905	1.517189454990479	-0.9101177723087371	-0.5604769733287103	1.5509079940375787	-0.8401125753426882	-0.25287569673624616	1.8257861370850963	-0.5282559002209707	-0.24994154001103847	1.6926291838161547	-0.524543794165759	-0.2507168566431756	1.5584635744760185	-0.5279797623999022	-0.21628329528018833	1.528793505436688	-0.5669064256317206	-0.21968920727844574	1.5359586948035095	-0.5896344585946139	-0.2542059792500058	1.552896913850228	-0.5154580218856237	-0.2669043921066714	1.9814389879418133	-0.481604608753757	-0.2309533310418984	2.0435354179086564	-0.5301187214377225	-0.2729518570371072	1.9772564959526002	-0.38613948915584184	-0.2793495514346123	1.8971183140440477	-0.32993157968737713	-0.254855211531713	1.8725574160280722	-0.4135997667168143	-0.259533727849455	1.985305281595585	-0.571110708118509	-0.2594098160835249	1.9113927520251763	-0.6047308284325691	-0.22491866562455892	1.8609125204878179	-0.6180338001621496
52	1.7333333333333334	-0.25454024621640226	1.8226427586614522	-0.4816169282574992	-0.2657429853994367	1.8212676046088059	-0.40652406322908463	-0.267232276833774	1.6920553686871296	-0.38330817117558	-0.45937854854086513	1.5570329601379003	-0.7096276468284336	-0.4701497840843857	1.508451192534829	-0.8053461193232615	-0.5475995472066431	1.5124343695702522	-0.9273469020696669	-0.4862748684440131	1.5493649151418158	-0.7295997049508974	-0.24701416553470307	1.826808233408013	-0.5470222968237494	-0.2513431965835861	1.6910938440769145	-0.5316669542897215	-0.25120284439387147	1.557604541179945	-0.5274481759269392	-0.21400245250831007	1.5283172681296995	-0.5691637992757276	-0.2193241617020129	1.5342108923689388	-0.5899987681860945	-0.25624672971738444	1.5526339128040154	-0.5134648185662325	-0.26107828204972194	1.9831641862942033	-0.49728113805711227	-0.22876582720134314	2.0435503594145343	-0.5408890875441551	-0.27229773185765227	1.9798944237513743	-0.40087675086079066	-0.27221874099259225	1.8964673598282886	-0.3468671595299322	-0.25357092892187577	1.8814243836509499	-0.4472173397193467	-0.24902196371654464	1.9858843439013023	-0.5907974233936845	-0.258268781641385	1.9188602383663722	-0.6226360401464377	-0.2202232488353153	1.875770630195052	-0.6248411974688862
53	1.7666666666666666	-0.2545581850776154	1.820900738103685	-0.49010926725317916	-0.26492400103362257	1.8187755534426997	-0.4204404263858617	-0.25673027618273914	1.692656301829702	-0.4135099344149678	-0.3666393438701172	1.555605291980344	-0.54672237084375	-0.38946752464152956	1.5126054298096667	-0.6817592131908269	-0.44362101205354937	1.514869909676861	-0.7507932345173818	-0.4120727635593159	1.547821836246053	-0.6190868345591066	-0.24698251218563508	1.8242456292532807	-0.5554039172583131	-0.25207794206505946	1.6888783584973295	-0.5351576633228474	-0.2512386527773606	1.5577241182623096	-0.5274923645862049	-0.2163406910001162	1.5295380873098918	-0.5666865943092722	-0.22123382942071634	1.535616063047341	-0.5884507608010227	-0.2542495519056269	1.5528699763734188	-0.5152141820184039	-0.25486764887697766	1.9849568318867123	-0.5124435999662206	-0.2205442057220747	2.0444428315052363	-0.5582141725023803	-0.26480088469823143	1.9810097092076189	-0.41806142989062617	-0.269630924325938	1.9022534154116983	-0.355708425701912	-0.23871611402284526	1.8922347279231262	-0.461284625703646	-0.2455701287539094	1.9864241066649566	-0.6068140048877141	-0.2579701011740482	1.9169940930630174	-0.6310203809636338	-0.21693213130862646	1.894598511359561	-0.6090968292270325
54	1.8	-0.2507568378815985	1.8224937356295634	-0.4947434504247264	-0.2583433438068652	1.8196712195933251	-0.4324329751406131	-0.2569573186528364	1.6860852871820222	-0.42596292964021176	-0.27390013919936923	1.554177623822788	-0.38381709485906634	-0.30878526519867344	1.5167596670845045	-0.5581723070583923	-0.3396424769004557	1.5173054497834695	-0.5742395669650967	-0.3378706586746187	1.54627875735029	-0.5085739641673159	-0.24590657959749895	1.8250079579036596	-0.5610552437842576	-0.25251801189383544	1.6895593619171208	-0.5348443133439711	-0.2513827415137634	1.5583623517617922	-0.5274080347958349	-0.21765587719883675	1.5308801610716163	-0.5699130677078114	-0.22267394527544843	1.5379120037487806	-0.5912675808486325	-0.25562712337024346	1.5547359053542549	-0.5101202343623921	-0.24879922400402857	1.9861590968535403	-0.5190837852671217	-0.21538291351738828	2.0444749882124302	-0.5679603392914716	-0.26080530865635776	1.984570774944499	-0.4229605804809238	-0.2684482720613788	1.9030018675931861	-0.36103245065656603	-0.23825529222541866	1.9003583428824036	-0.4803353339894122	-0.23794670331263537	1.9879165517011113	-0.6188068908971782	-1.2843555559073545	1.8427334998228606	0.4216502188962249	-0.2155935995896473	1.9035871160871305	-0.6072322314246652
55	1.8333333333333333	-0.25180837080295243	1.821514688848083	-0.49799019213010987	-0.25757716328453856	1.8188891737420025	-0.4378553329240732	-0.2530388289618669	1.6859520648786013	-0.43023680737805864	-0.25906219424826865	1.5545206838154373	-0.39950179450342477	-0.22810300575581735	1.5209139043593425	-0.43458540092595765	-0.235663941747362	1.5197409898900782	-0.3976858994128116	-0.2636685537899215	1.5447356784545272	-0.39806109377552507	-0.2440040512769692	1.8237966595488193	-0.5632741619024597	-0.25133131215796983	1.688057753197888	-0.5401208711168018	-0.2512011526718292	1.557781525408056	-0.5275908210607474	-0.2160527035320322	1.5281758063911135	-0.5670578303520035	-0.2222338576237178	1.5357347963303318	-0.5915881679381984	-0.2542987115801791	1.55347147033585	-0.5156813609438254	-0.24782365962194497	1.985023410534794	-0.5244263822107971	-0.21623735664905902	2.0455879311728116	-0.5717668744967291	-0.2599511628247303	1.983656964404817	-0.42821289095723614	-0.26738159808088735	1.9044935813989798	-0.3581086213452425	-0.23632285548270354	1.9047503764229796	-0.48325032790510897	-0.23589110395046645	1.9867681263161512	-0.6212715396451941	-0.2511783087784788	1.9155789198432127	-0.6460221150795108	-0.21681679124692407	1.905436570094229	-0.6109158964428263
56	1.8666666666666667	-0.24925825343477268	1.8248018343161487	-0.5059568507779905	-0.25617473794894224	1.8220252327933095	-0.440511447712022	-0.25220505062311027	1.6848598569666968	-0.42671052995420466	-0.2599703189344816	1.5530636974102172	-0.4031024760362055	-0.22741983502032373	1.5194826408720952	-0.4397479362344452	-0.23214070907369355	1.5191776153901313	-0.40141149008357924	-0.2667490126866716	1.544649671516218	-0.3994625849276706	-0.23721577570050992	1.8266826093767894	-0.5754027598781937	-0.2502429910038813	1.687985117440633	-0.5371280625169925	-0.2527245276181606	1.5606457734025625	-0.5265517428391974	-0.21395784364568665	1.5281784264928204	-0.5692747541744559	-0.22210072082647103	1.535271714154179	-0.5916323262640006	-0.2544190862740145	1.554317044484375	-0.5152131262748056	-0.2477675233923039	1.985066450920543	-0.5245704981641295	-0.21429726128941284	2.0468966311759256	-0.5744034795527868	-0.2599480554110549	1.9852076105822016	-0.4288700436994515	-0.2641618346259877	1.9052351402298335	-0.356791542717053	-0.22831958412392814	1.9111276034542308	-0.4757409796008304	-0.23393317419279205	1.9880956715339366	-0.6237654284084061	-0.2482706270314979	1.9132130970868932	-0.6448328291075569	-0.2115938806620995	1.9122390284899713	-0.5843230716099103
